<?xml version="1.0" encoding="UTF-8"?><svg id="Layer_1" xmlns="http://www.w3.org/2000/svg" width="155.46" height="155.49" viewBox="0 0 155.46 155.49"><defs><style>.cls-1{fill:#d83e3e;}</style></defs><path class="cls-1" d="M19.07,30.71l3.14-3.43c2.3-2.52,5.47-2.65,8.03-.31,2.52,2.31,2.97,5.65,.55,8.3l-3.06,3.35-8.65-7.91Zm8.85,4.66l1.28-1.4c1.52-1.66,.95-3.52-.73-5.06-1.41-1.29-3.34-1.79-4.89-.1l-1.29,1.41,5.63,5.15Z"/><path class="cls-1" d="M42.64,17.82c1.87,2.67,1.88,6.09-1.23,8.28-3.01,2.11-6.12,1.03-8.05-1.72-1.96-2.79-1.72-6.16,1.26-8.25,2.81-1.97,5.96-1.25,8.03,1.69Zm-7.17,5.02c1.31,1.87,3.13,2.71,4.83,1.52,1.84-1.29,1.41-3.3,.21-5.01-1.27-1.81-3.02-2.72-4.81-1.46-1.73,1.22-1.55,3.09-.24,4.95Z"/><path class="cls-1" d="M50.53,20.37l-6.99-9.87,2.52-.97c2.96,4.63,4.28,6.68,4.87,7.84h.02c-.36-2.18-.76-6.39-1.14-9.28l2.13-.82c1.37,1.88,4.11,5.7,5.24,7.57h.02c-.56-2.56-1.12-7.21-1.39-9.05l2.3-.88,1.25,12.08-2.45,.94c-1.51-2.2-3.83-5.37-4.94-7.09h-.02c.35,2.11,.78,6.17,1.04,8.6l-2.45,.94Z"/><path class="cls-1" d="M63.28,4.04l2.51-.36,1.38,9.54,5.78-.84v2.1s-7.98,1.16-7.98,1.16l-1.68-11.59Z"/><path class="cls-1" d="M86.8,8.91c-.16,3.26-2.25,5.97-6.05,5.78-3.67-.18-5.47-2.94-5.31-6.3,.17-3.41,2.42-5.92,6.05-5.74,3.43,.17,5.48,2.67,5.31,6.26Zm-8.74-.44c-.11,2.29,.81,4.06,2.88,4.16,2.25,.11,3.14-1.74,3.24-3.82,.11-2.21-.72-4-2.9-4.11-2.12-.1-3.12,1.49-3.23,3.77Z"/><path class="cls-1" d="M92.44,13.36l-1.58,2.38-2.41-.64,6.85-10.31,3.08,.81,1.02,12.39-2.58-.68-.24-2.86-4.14-1.1Zm4.14-1.05c-.17-2.6-.28-4.27-.28-5.36h-.02c-.58,1.04-1.61,2.67-2.8,4.54l3.1,.82Z"/><path class="cls-1" d="M107.12,8.55l4.15,2.09c3.05,1.54,4.03,4.55,2.47,7.65-1.54,3.05-4.64,4.39-7.84,2.77l-4.06-2.05,5.28-10.47Zm-2.09,9.78l1.7,.86c2.01,1.01,3.65-.03,4.67-2.07,.86-1.71,.82-3.7-1.23-4.73l-1.71-.86-3.44,6.81Z"/><path class="cls-1" d="M127.93,33.23c-1.86,1.25-4.15,1.25-6.26-.79-2.67-2.58-2.12-5.69,.2-8.09,2.23-2.31,5.53-3.13,8.25-.5,2.25,2.17,2.06,4.53,.91,6.14l-1.82-1.76c.45-.82,.62-1.9-.52-3.01-1.5-1.45-3.39-.66-4.87,.88-1.38,1.43-2.32,3.41-.69,4.99,1.19,1.15,2.33,.71,2.97,.37l1.83,1.77Z"/><path class="cls-1" d="M129.13,40.81l7.34-10.03,1.54,2.25-3.49,4.5c-1.05,1.36-1.97,2.48-2.81,3.38l.02,.03c1.04-.42,2.48-.85,4.17-1.33l5.53-1.57,1.46,2.13-12.08,3.11-1.69-2.47Z"/><path class="cls-1" d="M147.84,50.65l1.39,4.43c1.02,3.26-.46,6.06-3.76,7.09-3.26,1.02-6.38-.27-7.45-3.69l-1.36-4.33,11.18-3.5Zm-8.47,5.31l.57,1.81c.67,2.14,2.56,2.59,4.74,1.91,1.83-.57,3.23-1.99,2.54-4.18l-.57-1.83-7.28,2.28Z"/><path class="cls-1" d="M147.13,77.51c-3.25,.28-6.21-1.44-6.53-5.23-.31-3.66,2.19-5.81,5.54-6.09,3.4-.29,6.19,1.61,6.5,5.24,.29,3.42-1.92,5.78-5.5,6.09Zm-.73-8.72c-2.28,.19-3.92,1.34-3.74,3.41,.19,2.25,2.14,2.88,4.22,2.71,2.21-.19,3.87-1.24,3.68-3.42-.18-2.11-1.88-2.89-4.16-2.7Z"/><path class="cls-1" d="M140.96,83.03l12.04-1.1-.42,2.67c-5.49,.24-7.93,.36-9.22,.29v.02c2.05,.78,5.9,2.54,8.59,3.66l-.36,2.25c-2.31,.24-6.99,.7-9.17,.74v.02c2.48,.79,6.79,2.64,8.52,3.33l-.39,2.43-11.07-4.97,.41-2.59c2.66-.2,6.56-.62,8.61-.72v-.02c-1.99-.75-5.72-2.41-7.95-3.4l.41-2.59Z"/><path class="cls-1" d="M148.72,102.24l-.94,2.35-8.96-3.58-2.16,5.42-1.82-1.04,3-7.51,10.89,4.34Z"/><path class="cls-1" d="M132.67,120.16c-2.74-1.78-4.02-4.95-1.95-8.14,2-3.08,5.29-3.24,8.11-1.41,2.86,1.86,3.9,5.07,1.91,8.12-1.87,2.87-5.07,3.39-8.07,1.43Zm4.78-7.33c-1.92-1.25-3.92-1.35-5.05,.39-1.23,1.89-.08,3.59,1.67,4.72,1.86,1.21,3.81,1.4,5-.44,1.15-1.77,.29-3.44-1.63-4.68Z"/><path class="cls-1" d="M126,122.78l-1.27-2.56,1.76-1.76,5.48,11.09-2.25,2.25-11.22-5.34,1.88-1.88,2.59,1.23,3.03-3.03Zm-1.17,4.11c2.34,1.16,3.83,1.9,4.77,2.44h.01c-.61-1.03-1.5-2.75-2.52-4.71l-2.26,2.27Z"/><path class="cls-1" d="M122.79,137.9l-3.89,2.54c-2.86,1.87-5.95,1.21-7.85-1.69-1.87-2.86-1.48-6.21,1.52-8.17l3.8-2.49,6.42,9.8Zm-7.42-6.7l-1.59,1.04c-1.88,1.23-1.8,3.17-.55,5.08,1.05,1.6,2.79,2.56,4.71,1.31l1.6-1.05-4.18-6.38Z"/><path class="cls-1" d="M91.03,143.54c-.15-2.23,1-4.21,3.82-5.02,3.57-1.02,5.98,1.02,6.9,4.23,.88,3.09-.07,6.35-3.71,7.39-3,.86-4.96-.49-5.77-2.29l2.44-.7c.48,.8,1.34,1.49,2.87,1.06,2.01-.57,2.27-2.6,1.68-4.65-.54-1.91-1.79-3.72-3.97-3.1-1.59,.45-1.79,1.66-1.81,2.38l-2.45,.7Z"/><path class="cls-1" d="M83.87,140.76l4.97,11.39-2.71,.2-2.13-5.27c-.64-1.59-1.15-2.95-1.5-4.13h-.03c-.16,1.11-.51,2.57-.95,4.27l-1.43,5.57-2.58,.19,3.39-11.99,2.98-.21Z"/><path class="cls-1" d="M65.97,152l-4.53-1.02c-3.33-.75-5.01-3.43-4.26-6.81,.75-3.33,3.43-5.39,6.93-4.6l4.43,1-2.57,11.43Zm-.35-9.99l-1.85-.42c-2.19-.49-3.53,.92-4.03,3.15-.42,1.87,.1,3.79,2.34,4.29l1.87,.42,1.67-7.44Z"/><path class="cls-1" d="M43.06,137.92c1.39-2.95,4.37-4.66,7.81-3.03,3.33,1.57,3.93,4.81,2.49,7.85-1.46,3.09-4.5,4.55-7.79,2.99-3.1-1.46-4.04-4.57-2.51-7.81Zm7.91,3.75c.98-2.07,.81-4.07-1.07-4.95-2.04-.96-3.57,.4-4.46,2.29-.95,2.01-.87,3.97,1.11,4.9,1.92,.9,3.45-.18,4.42-2.25Z"/><path class="cls-1" d="M41.39,129.81l-5.11,10.96-2.09-1.71c2.56-4.86,3.68-7.03,4.39-8.11h-.01c-1.71,1.37-5.16,3.81-7.48,5.57l-1.76-1.44c.96-2.12,2.92-6.39,3.98-8.29h-.01c-1.93,1.74-5.7,4.52-7.17,5.67l-1.9-1.56,9.87-7.06,2.03,1.66c-1.17,2.4-2.76,5.98-3.71,7.8h.01c1.65-1.33,4.96-3.72,6.94-5.15l2.03,1.66Z"/><path class="cls-1" d="M20.9,126.86l-1.57-1.99,7.58-5.96-3.61-4.59,1.81-1.05,4.99,6.36-9.22,7.24Z"/><path class="cls-1" d="M13.42,104c2.91-1.48,6.3-1.01,8.02,2.39,1.67,3.28,.16,6.21-2.83,7.73-3.04,1.55-6.34,.84-7.99-2.41-1.55-3.06-.4-6.08,2.8-7.71Zm3.96,7.8c2.04-1.04,3.13-2.72,2.19-4.57-1.02-2.01-3.07-1.87-4.93-.92-1.98,1.01-3.12,2.6-2.13,4.55,.96,1.89,2.84,1.97,4.87,.94Z"/><path class="cls-1" d="M14.49,96.91l2.85,.19,.64,2.41-12.35-.84-.82-3.08,10.26-7.02,.68,2.58-2.37,1.63,1.1,4.14Zm-2.97-3.08c-2.18,1.44-3.57,2.36-4.51,2.9v.02c1.2-.02,3.12,.08,5.34,.18l-.82-3.1Z"/><path class="cls-1" d="M3.05,86.54l-.24-4.64c-.18-3.41,1.95-5.76,5.41-5.94,3.41-.18,6.11,1.85,6.3,5.43l.24,4.54-11.71,.61Zm9.53-3.04l-.1-1.9c-.12-2.25-1.84-3.15-4.12-3.03-1.91,.1-3.62,1.12-3.5,3.41l.1,1.91,7.62-.4Z"/><path class="cls-1" d="M14.12,56.25c2,.99,3.15,2.98,2.43,5.82-.91,3.6-3.89,4.66-7.12,3.85-3.11-.78-5.46-3.24-4.54-6.91,.76-3.02,2.91-4.04,4.88-3.84l-.62,2.46c-.94,.02-1.96,.41-2.35,1.95-.51,2.03,1.12,3.27,3.18,3.79,1.92,.48,4.11,.31,4.67-1.88,.4-1.6-.54-2.38-1.15-2.76l.62-2.47Z"/><path class="cls-1" d="M20.11,51.44l-12.34-1.42,1.19-2.45,5.63,.8c1.7,.24,3.13,.49,4.32,.77v-.03c-.86-.69-1.95-1.73-3.2-2.96l-4.1-4.03,1.13-2.32,8.67,8.95-1.31,2.69Z"/></svg>